<svg width="48" height="48" viewBox="0 0 48 48" fill="none" xmlns="http://www.w3.org/2000/svg">
<path d="M4 18.6361C4 26.0941 12.04 33.9821 17.924 38.7561C20.588 40.9201 21.92 42.0001 24 42.0001C26.08 42.0001 27.412 40.9201 30.076 38.7581C35.962 33.9801 44 26.0941 44 18.6341C44 6.17406 33 1.52206 24 11.1481C15 1.52206 4 6.17406 4 18.6361Z" fill="url(#paint0_linear_692_3737)"/>
<path fill-rule="evenodd" clip-rule="evenodd" d="M33 12.5C33.3978 12.5 33.7794 12.658 34.0607 12.9393C34.342 13.2206 34.5 13.6022 34.5 14V16.5H37C37.3978 16.5 37.7794 16.658 38.0607 16.9393C38.342 17.2206 38.5 17.6022 38.5 18C38.5 18.3978 38.342 18.7794 38.0607 19.0607C37.7794 19.342 37.3978 19.5 37 19.5H34.5V22C34.5 22.3978 34.342 22.7794 34.0607 23.0607C33.7794 23.342 33.3978 23.5 33 23.5C32.6022 23.5 32.2206 23.342 31.9393 23.0607C31.658 22.7794 31.5 22.3978 31.5 22V19.5H29C28.6022 19.5 28.2206 19.342 27.9393 19.0607C27.658 18.7794 27.5 18.3978 27.5 18C27.5 17.6022 27.658 17.2206 27.9393 16.9393C28.2206 16.658 28.6022 16.5 29 16.5H31.5V14C31.5 13.6022 31.658 13.2206 31.9393 12.9393C32.2206 12.658 32.6022 12.5 33 12.5Z" fill="white"/>
<defs>
<linearGradient id="paint0_linear_692_3737" x1="4" y1="23.9997" x2="44" y2="23.9997" gradientUnits="userSpaceOnUse">
<stop stop-color="#1FC29D"/>
<stop offset="1" stop-color="#4AF5CE"/>
</linearGradient>
</defs>
</svg>
